<?xml version="1.0" encoding="UTF-8"?><svg id="Art_3.0" xmlns="http://www.w3.org/2000/svg" viewBox="0 0 48 48"><g><path d="M43.6338,19.5H22.6338v2h1v-1h19v12H26.5v1h4.7142l-.5359,2h-2.1782v1h9v-1h-2.0435l-.5359-2h8.7132v-14Zm-9.2127,16h-2.7074l.5358-2h1.6359l.5358,2Z" fill="#fff"/><polygon points="15.5 25.5 16.5 25.5 16.5 24.5 23.5 24.5 23.5 35.5 19.5 35.5 19.5 36.5 24.5 36.5 24.5 23.5 15.5 23.5 15.5 25.5" fill="#fff"/><rect x="19.501" y="33.5" width="2" height="1" fill="#fff"/><path d="M11.5,36.5h6v-9h-6v9Zm1-8h4v7h-4v-7Z" fill="#fff"/><rect x="13.5" y="29.5" width="2" height="1" fill="#fff"/><path d="M11,19.9165c0-2.7568,2.2432-5,5-5,.7349,0,1.4497,.1616,2.125,.48l.5122,.2412,.1763-.5381c1.2935-3.9473,4.9517-6.5996,9.103-6.5996,5.0873,0,9.2499,3.9878,9.554,9h1c-.3055-5.564-4.9149-10-10.554-10-4.4043,0-8.3057,2.7026-9.8726,6.7793-.6572-.2407-1.3428-.3628-2.0439-.3628-3.3086,0-6,2.6919-6,6,0,.1445,.0059,.2905,.0166,.4375-3.0054-.2861-5.5166,2.1167-5.5166,5.0625,0,2.7744,2.2361,5.0293,5,5.0752v-1c-2.2122-.0459-4-1.8521-4-4.0752,0-2.2515,1.832-4.083,4.0835-4.083,.2861,0,.583,.0356,.9062,.1094l.7461,.1704-.1436-.752c-.0615-.3193-.0923-.6372-.0923-.9448Z" fill="#fff"/></g><rect width="48" height="48" fill="none"/></svg>