<?xml version="1.0" encoding="utf-8"?>
<!-- Generator: Adobe Illustrator 27.1.1, SVG Export Plug-In . SVG Version: 6.00 Build 0)  -->
<svg version="1.1" id="Art_3.0" xmlns="http://www.w3.org/2000/svg" xmlns:xlink="http://www.w3.org/1999/xlink" x="0px" y="0px"
	 viewBox="0 0 48 48" style="enable-background:new 0 0 48 48;" xml:space="preserve">
<style type="text/css">
	.st0{fill:#FFFFFF;}
	.st1{fill:#FFFFFF;fill-opacity:0;}
</style>
<g>
	<path class="st0" d="M6.49951,22.47744c0-2.20557,1.79443-4,4-4c0.15674,0,0.30762,0.02344,0.5498,0.05762l0.70996,0.09863
		l-0.15234-0.7002c-0.07227-0.33154-0.10742-0.64404-0.10742-0.95605c0-2.48145,2.01855-4.5,4.5-4.5
		c0.90869,0,1.78613,0.27197,2.5376,0.78711L19.021,13.5956l0.25098-0.52979c1.31836-2.7876,4.15576-4.58838,7.22754-4.58838
		c2.74341,0,5.16748,1.38916,6.60925,3.5h1.17297c-1.55914-2.68555-4.45984-4.5-7.78223-4.5
		c-3.27148,0-6.30566,1.81445-7.87891,4.66699c-0.80322-0.43799-1.69873-0.66699-2.62109-0.66699c-3.03271,0-5.5,2.46729-5.5,5.5
		c0,0.16406,0.0083,0.33105,0.02441,0.5h-0.02441c-2.75684,0-5,2.24316-5,5s2.24316,5,5,5H17v-1h-6.50049
		C8.29394,26.47743,6.49951,24.683,6.49951,22.47744z"/>
	<path class="st0" d="M32.5,15.57608v-1.09863h2v-1h-7v1h2v1.09863c-6.18658,0.74463-11,6.01758-11,12.40137
		c0,6.89258,5.60742,12.5,12.5,12.5s12.5-5.60742,12.5-12.5C43.5,21.59366,38.68658,16.32071,32.5,15.57608z M30.5,14.47745h1
		v1.02539c-0.16718-0.00684-0.33124-0.02539-0.5-0.02539s-0.33282,0.01855-0.5,0.02539V14.47745z M31,39.47745
		c-6.34131,0-11.5-5.15918-11.5-11.5s5.15869-11.5,11.5-11.5s11.5,5.15918,11.5,11.5S37.34131,39.47745,31,39.47745z"/>
	<path class="st0" d="M31,17.47744c-5.78955,0-10.5,4.71045-10.5,10.5s4.71045,10.5,10.5,10.5s10.5-4.71045,10.5-10.5
		S36.78955,17.47744,31,17.47744z M38.05579,34.31631l-0.6925-0.69238l-0.70703,0.70703l0.69281,0.69287
		c-1.56677,1.41309-3.60077,2.30908-5.84271,2.42822v-0.99316h-1v0.99365c-2.245-0.11621-4.28229-1.01123-5.85156-2.42529
		l0.70508-0.70508l-0.70703-0.70703l-0.70508,0.70508c-1.4137-1.57031-2.30817-3.60889-2.42303-5.85498h0.99969v-1h-0.99847
		c0.12061-2.24414,1.01935-4.2793,2.43597-5.84619l0.69873,0.69971l0.70752-0.70654l-0.69781-0.69873
		c1.57001-1.4082,3.60583-2.29834,5.84821-2.41162v0.98145h1v-0.97949c2.23828,0.12158,4.26874,1.01758,5.83301,2.42969
		l-0.68652,0.6875l0.70752,0.70654l0.68549-0.68652c1.40784,1.56689,2.29926,3.59814,2.41663,5.83643h-0.97467v1h0.97467
		c-0.11743,2.23926-1.00977,4.27197-2.41888,5.83887L38.05579,34.31631z"/>
	<path class="st0" d="M33.81689,22.09854l-2.54413,4.40625c-0.08893-0.01562-0.17938-0.02734-0.27277-0.02734
		c-0.85742,0-1.55469,0.69727-1.55469,1.55469s0.69727,1.55469,1.55469,1.55469s1.55469-0.69727,1.55469-1.55469
		c0-0.40186-0.15704-0.76465-0.40784-1.04102l2.53625-4.39258l-0.86621-0.5H33.81689z M31,28.58682
		c-0.30566,0-0.55469-0.24902-0.55469-0.55469S30.69433,27.47744,31,27.47744c0.07605,0,0.14856,0.01562,0.21466,0.04346
		l0.00482,0.00293c0.19666,0.08496,0.33521,0.28076,0.33521,0.5083C31.55469,28.33779,31.30567,28.58682,31,28.58682z"/>
</g>
<rect class="st1" width="48" height="48"/>
</svg>
