<?xml version="1.0" encoding="utf-8"?>
<!-- Generator: Adobe Illustrator 27.1.1, SVG Export Plug-In . SVG Version: 6.00 Build 0)  -->
<svg version="1.1" id="Art_3.0" xmlns="http://www.w3.org/2000/svg" xmlns:xlink="http://www.w3.org/1999/xlink" x="0px" y="0px"
	 viewBox="0 0 48 48" style="enable-background:new 0 0 48 48;" xml:space="preserve">
<style type="text/css">
	.st0{fill:#FFFFFF;}
	.st1{fill:#FFFFFF;fill-opacity:0;}
</style>
<g>
	<path class="st0" d="M42.5,33.5v-23h-37v23h14.92035l-0.80408,3H16.5v1h15v-1h-3.11627l-0.80408-3
		C27.57965,33.5,42.5,33.5,42.5,33.5z M6.5,11.5h35v21h-35V11.5z M27.34827,36.5h-6.69653l0.80383-3h5.08887L27.34827,36.5z"/>
	<rect x="25.5" y="17.5" class="st0" width="12" height="1"/>
	<rect x="25.5" y="21.5" class="st0" width="12" height="1"/>
	<rect x="25.5" y="25.5" class="st0" width="12" height="1"/>
	<path class="st0" d="M17,19.5c-1.37842,0-2.5,1.12158-2.5,2.5s1.12158,2.5,2.5,2.5s2.5-1.12158,2.5-2.5S18.37842,19.5,17,19.5z
		 M17,23.5c-0.82715,0-1.5-0.67285-1.5-1.5s0.67285-1.5,1.5-1.5s1.5,0.67285,1.5,1.5S17.82715,23.5,17,23.5z"/>
	<path class="st0" d="M21.5,22c0-0.07959-0.00635-0.15723-0.01514-0.23389l1.84473-1.84521l-1.38379-2.39648l-2.54102,0.68115
		c-0.11475-0.07275-0.23145-0.14014-0.3501-0.20166L18.38378,15.5H15.6162l-0.6709,2.50439
		c-0.13184,0.06885-0.26172,0.14502-0.39111,0.23047l-2.47266-0.6626l-1.38379,2.39648l1.81592,1.81592
		c-0.0083,0.0708-0.01367,0.14209-0.01367,0.21533c0,0.09277,0.00781,0.18359,0.01855,0.27393l-1.79297,1.79199l1.38379,2.39697
		l2.48682-0.66602c0.14111,0.09082,0.27979,0.1709,0.41895,0.24072l0.65625,2.4502h2.76758l0.67773-2.52979
		c0.12109-0.06494,0.23975-0.13574,0.35547-0.21289l2.50146,0.66992l1.38379-2.39648l-1.86572-1.86523
		C21.49657,22.10254,21.49999,22.05175,21.5,22z M22.10742,24.18359l-0.61621,1.06738l-2.21973-0.59473l-0.19385,0.14404
		c-0.19043,0.14209-0.39209,0.26318-0.59814,0.35986l-0.21045,0.09863l-0.59766,2.229h-1.23242l-0.58154-2.16992l-0.22412-0.09521
		c-0.21387-0.09082-0.42822-0.21387-0.65527-0.37549l-0.19189-0.13672l-2.19434,0.58838l-0.61621-1.06836l1.59473-1.59424
		l-0.04541-0.375c-0.01172-0.08594-0.0249-0.17188-0.0249-0.26123c0-0.06689,0.01025-0.13184,0.01904-0.19629l0.04199-0.38574
		l-1.61328-1.61328l0.61621-1.06738l2.18604,0.58545l0.19287-0.14111c0.21191-0.1543,0.41797-0.27539,0.63086-0.37109
		l0.2168-0.09717l0.59326-2.21338h1.23242l0.59326,2.21387l0.21729,0.09717c0.20508,0.0918,0.40625,0.20752,0.59766,0.34375
		l0.19189,0.13672l2.24707-0.60205l0.61621,1.06738l-1.64258,1.64307l0.04248,0.38623
		c0.00977,0.07031,0.02051,0.14062,0.02051,0.21387c0,0.04785-0.00781,0.09375-0.01416,0.13965l-0.03711,0.38477l1.65869,1.65918
		L22.10742,24.18359z"/>
</g>
<rect class="st1" width="48" height="48"/>
</svg>
