<?xml version="1.0" encoding="utf-8"?>
<!-- Generator: Adobe Illustrator 27.1.1, SVG Export Plug-In . SVG Version: 6.00 Build 0)  -->
<svg version="1.1" id="Note" xmlns="http://www.w3.org/2000/svg" xmlns:xlink="http://www.w3.org/1999/xlink" x="0px" y="0px"
	 viewBox="0 0 48 48" style="enable-background:new 0 0 48 48;" xml:space="preserve">
<style type="text/css">
	.st0{fill:#FFFFFF;}
	.st1{fill:#FFFFFF;fill-opacity:0;}
</style>
<path class="st0" d="M8,11.5c-0.82715,0-1.5,0.67285-1.5,1.5s0.67285,1.5,1.5,1.5s1.5-0.67285,1.5-1.5S8.82715,11.5,8,11.5z M8,13.5
	c-0.27588,0-0.5-0.22412-0.5-0.5c0-0.27539,0.22412-0.5,0.5-0.5s0.5,0.22461,0.5,0.5C8.5,13.27588,8.27588,13.5,8,13.5z M15.5,12.5
	v1h-5v-1H15.5z M8,19.5c-0.82715,0-1.5,0.67285-1.5,1.5s0.67285,1.5,1.5,1.5s1.5-0.67285,1.5-1.5S8.82715,19.5,8,19.5z M8,21.5
	c-0.27588,0-0.5-0.22412-0.5-0.5c0-0.27539,0.22412-0.5,0.5-0.5s0.5,0.22461,0.5,0.5C8.5,21.27588,8.27588,21.5,8,21.5z M15.5,20.5
	v1h-5v-1H15.5z M8,27.5c-0.82715,0-1.5,0.67285-1.5,1.5s0.67285,1.5,1.5,1.5s1.5-0.67285,1.5-1.5S8.82715,27.5,8,27.5z M8,29.5
	c-0.27588,0-0.5-0.22412-0.5-0.5c0-0.27539,0.22412-0.5,0.5-0.5s0.5,0.22461,0.5,0.5C8.5,29.27588,8.27588,29.5,8,29.5z M15.5,29.5
	h-5v-1h5V29.5z M26.5,8.5v27h1v-2h7v3h-1v1h-19v-1h-1v-3h7v2h1v-27h-17v27h1v-2h7v3h-1v1h-4v1h4v1h3v-1h19v1h3v-1h4v-1h-4v-1h-1v-3
	h7v2h1v-27H26.5z M5.5,9.5h15v7h-15V9.5z M5.5,17.5h15v7h-15V17.5z M5.5,32.5v-7h15v7H5.5z M12.5,38.5v-1h1v1H12.5z M35.5,38.5h-1
	v-1h1V38.5z M42.5,32.5h-15v-7h15V32.5z M42.5,24.5h-15v-7h15V24.5z M27.5,16.5v-7h15v7H27.5z M30,11.5
	c-0.82715,0-1.5,0.67285-1.5,1.5s0.67285,1.5,1.5,1.5s1.5-0.67285,1.5-1.5S30.82715,11.5,30,11.5z M30,13.5
	c-0.27588,0-0.5-0.22412-0.5-0.5c0-0.27539,0.22412-0.5,0.5-0.5s0.5,0.22461,0.5,0.5C30.5,13.27588,30.27588,13.5,30,13.5z
	 M37.5,12.5v1h-5v-1H37.5z M30,22.5c0.82715,0,1.5-0.67285,1.5-1.5s-0.67285-1.5-1.5-1.5s-1.5,0.67285-1.5,1.5
	S29.17285,22.5,30,22.5z M30,20.5c0.27588,0,0.5,0.22461,0.5,0.5c0,0.27588-0.22412,0.5-0.5,0.5s-0.5-0.22412-0.5-0.5
	C29.5,20.72461,29.72412,20.5,30,20.5z M37.5,21.5h-5v-1h5V21.5z M30,30.5c0.82715,0,1.5-0.67285,1.5-1.5s-0.67285-1.5-1.5-1.5
	s-1.5,0.67285-1.5,1.5S29.17285,30.5,30,30.5z M30,28.5c0.27588,0,0.5,0.22461,0.5,0.5c0,0.27588-0.22412,0.5-0.5,0.5
	s-0.5-0.22412-0.5-0.5C29.5,28.72461,29.72412,28.5,30,28.5z M37.5,29.5h-5v-1h5V29.5z"/>
<rect class="st1" width="48" height="48"/>
</svg>
