<?xml version="1.0" encoding="utf-8"?>
<!-- Generator: Adobe Illustrator 27.1.1, SVG Export Plug-In . SVG Version: 6.00 Build 0)  -->
<svg version="1.1" id="Note" xmlns="http://www.w3.org/2000/svg" xmlns:xlink="http://www.w3.org/1999/xlink" x="0px" y="0px"
	 viewBox="0 0 48 48" style="enable-background:new 0 0 48 48;" xml:space="preserve">
<style type="text/css">
	.st0{fill:#FFFFFF;}
	.st1{fill:#FFFFFF;fill-opacity:0;}
</style>
<path class="st0" d="M41.5,27.5c0,2.70117-1.09473,5.34229-3.00342,7.24609c-1.77832,1.77393-4.06592,2.74805-6.49805,2.74121
	l-0.5-0.00146l0.00293-1l0.5,0.00146h0.02002c2.13721,0,4.18506-0.86914,5.76904-2.44922
	c1.72168-1.71777,2.70947-4.10059,2.70947-6.53809c0-4.30566-3.06641-8.02051-7.29102-8.83301l-0.27637-0.05322l-0.09814-0.26416
	c-1.52197-4.09668-5.47412-6.84961-9.83447-6.84961c-5.40625,0-9.99854,4.21875-10.45459,9.60449l-0.03418,0.40576l-0.40479,0.04834
	c-3.76611,0.44775-6.60645,3.64648-6.60645,7.44141c0,4.13574,3.36426,7.5,7.5,7.5h1.5v1h-1.5c-4.68701,0-8.5-3.81299-8.5-8.5
	c0-4.16602,3.02051-7.69873,7.08984-8.37744c0.68652-5.70801,5.62207-10.12256,11.41016-10.12256
	c4.68359,0,8.93652,2.89844,10.67188,7.24121c4.55273,1.0083,7.82812,5.06836,7.82812,9.75879L41.5,27.5z M32.02124,30.31396
	L28,26.29296l-4,4v1.41406l3.5-3.5v8.79297h1v-8.79297l3.52124,3.52148C32.02124,31.7285,32.02124,30.31395,32.02124,30.31396z
	 M18.5,27h-1v8.79297l-3.5-3.5v1.41406l4,4l4.02124-4.021v-1.41455L18.5,35.79296v-8.79297V27z"/>
<rect class="st1" width="48" height="48"/>
</svg>
