<?xml version="1.0" encoding="utf-8"?>
<!-- Generator: Adobe Illustrator 27.1.1, SVG Export Plug-In . SVG Version: 6.00 Build 0)  -->
<svg version="1.1" id="Note" xmlns="http://www.w3.org/2000/svg" xmlns:xlink="http://www.w3.org/1999/xlink" x="0px" y="0px"
	 viewBox="0 0 48 48" style="enable-background:new 0 0 48 48;" xml:space="preserve">
<style type="text/css">
	.st0{fill:#FFFFFF;}
	.st1{fill:#FFFFFF;fill-opacity:0;}
</style>
<path class="st0" d="M26.76416,20.48779L24,14.8667l-2.76416,5.62109l-6.19922,0.8916l4.4917,4.36523l-1.06836,6.17236L24,28.99364
	l5.54004,2.92334l-1.06836-6.17236l4.4917-4.36523C32.96338,21.37939,26.76416,20.48779,26.76416,20.48779z M28.20801,30.083
	L24,27.86327L19.79199,30.083l0.81152-4.6875l-3.41162-3.31592l4.70898-0.67725l2.09912-4.26904l2.09912,4.26904l4.70898,0.67725
	l-3.41162,3.31592l0.81152,4.6875L28.20801,30.083z M37.08155,10.91796c-3.49414-3.49414-8.14014-5.41797-13.08203-5.41797
	c-4.94141,0-9.5874,1.92383-13.08154,5.41797c-3.49414,3.49512-5.41846,8.14062-5.41846,13.08154
	c0,4.94189,1.92432,9.5874,5.41846,13.08154c3.49414,3.49463,8.14014,5.41895,13.08154,5.41895
	c4.94189,0,9.58789-1.92432,13.08203-5.41895c3.49414-3.49414,5.41846-8.13965,5.41846-13.08154
	C42.50001,19.05858,40.57569,14.41307,37.08155,10.91796z M36.37452,36.37401c-3.30518,3.30566-7.7002,5.12598-12.375,5.12598
	c-4.67432,0-9.06934-1.82031-12.37451-5.12598c-3.30518-3.30518-5.12549-7.7002-5.12549-12.37451
	c0-4.67383,1.82031-9.06836,5.12549-12.37451c3.30566-3.30518,7.7002-5.125,12.37451-5.125c4.6748,0,9.06934,1.81982,12.375,5.125
	c3.30518,3.30615,5.12549,7.70068,5.12549,12.37451C41.50001,28.67382,39.6797,33.06884,36.37452,36.37401z M23.99951,7.49951
	c-9.09814,0-16.5,7.40186-16.5,16.50049c0,9.09814,7.40186,16.5,16.5,16.5C33.09814,40.5,40.5,33.09814,40.5,24
	C40.5,14.90137,33.09814,7.49951,23.99951,7.49951z M23.99951,39.5c-8.54688,0-15.5-6.95312-15.5-15.5
	s6.95312-15.50049,15.5-15.50049S39.5,15.45312,39.5,24S32.54639,39.5,23.99951,39.5z"/>
<rect class="st1" width="48" height="48"/>
</svg>
